<?xml version="1.0" encoding="iso-8859-1"?>
<!-- Generator: Adobe Illustrator 19.0.0, SVG Export Plug-In . SVG Version: 6.00 Build 0)  -->
<svg version="1.1" id="Layer_1" xmlns="http://www.w3.org/2000/svg" xmlns:xlink="http://www.w3.org/1999/xlink" x="0px" y="0px"
	 viewBox="0 0 512.001 512.001" style="enable-background:new 0 0 512.001 512.001;" xml:space="preserve">
<polygon style="fill:#298983;" points="355.307,156.694 274.153,156.694 245.163,185.684 326.316,266.837 355.307,237.847 "/>
<rect x="142.962" y="276.429" transform="matrix(0.7071 0.7071 -0.7071 0.7071 279.0518 -50.387)" style="fill:#62D9C7;" width="114.772" height="70.445"/>
<path d="M192.096,223.928c-1.966-1.966-4.631-3.07-7.412-3.07c-2.781,0-5.444,1.104-7.412,3.07l-64.634,64.634
	c-4.093,4.093-4.093,10.73,0,14.821l95.976,95.976c1.966,1.966,4.631,3.07,7.412,3.07c2.781,0,5.444-1.104,7.412-3.07l64.634-64.634
	c4.093-4.093,4.093-10.73,0-14.821L192.096,223.928z M216.026,377.127l-81.153-81.153l49.812-49.812l81.153,81.153L216.026,377.127z
	"/>
<rect x="33.396" y="385.988" transform="matrix(0.7071 0.7071 -0.7071 0.7071 324.4304 59.1772)" style="fill:#298983;" width="114.772" height="70.445"/>
<path d="M82.527,333.499c-1.966-1.966-4.631-3.07-7.412-3.07c-2.781,0-5.445,1.104-7.412,3.07L3.07,398.133
	c-4.093,4.093-4.093,10.73,0,14.821l95.976,95.976c1.966,1.966,4.631,3.07,7.412,3.07s5.445-1.104,7.412-3.07l64.634-64.634
	c4.093-4.093,4.093-10.73,0-14.821L82.527,333.499z M106.457,486.698l-81.153-81.155l49.812-49.812l81.153,81.153L106.457,486.698z"
	/>
<rect x="200.675" y="20.962" style="fill:#A5F2E5;" width="154.629" height="114.773"/>
<path style="fill:#62D9C7;" d="M501.519,181.272c-5.79,0-10.481-4.693-10.481-10.481V21.235H376.269v290.088h114.769v-65.426
	c0-5.788,4.691-10.481,10.481-10.481l0,0L501.519,181.272L501.519,181.272z"/>
<path d="M491.038,245.896v65.426H376.269V21.235h114.769v149.558c0,5.788,4.691,10.481,10.481,10.481l0,0
	c5.79,0,10.481-4.693,10.481-10.481V10.754c0-2.965-1.237-5.637-3.216-7.545c-1.906-1.975-4.577-3.209-7.538-3.209H190.197
	c-5.79,0-10.481,4.693-10.481,10.481v135.73c0,5.788,4.691,10.481,10.481,10.481h54.312l-21.58,21.58
	c-1.965,1.965-3.069,4.631-3.069,7.411c0,2.78,1.104,5.446,3.069,7.411l95.976,95.976c2.047,2.046,4.729,3.07,7.412,3.07
	c2.682,0,5.365-1.023,7.412-3.07l21.578-21.578v54.312c0,5.788,4.691,10.481,10.481,10.481H501.52
	c5.79,0,10.481-4.693,10.481-10.481v-75.907c0-5.788-4.691-10.481-10.481-10.481l0,0
	C495.73,235.415,491.038,240.108,491.038,245.896z M245.163,185.684l28.99-28.99h81.153v81.153l-28.99,28.99L245.163,185.684z
	 M200.678,20.962h154.629V135.73H200.678L200.678,20.962L200.678,20.962z"/>
<g>
</g>
<g>
</g>
<g>
</g>
<g>
</g>
<g>
</g>
<g>
</g>
<g>
</g>
<g>
</g>
<g>
</g>
<g>
</g>
<g>
</g>
<g>
</g>
<g>
</g>
<g>
</g>
<g>
</g>
</svg>
